<?xml version="1.0" encoding="UTF-8" standalone="no"?>
<svg
   xmlns:dc="http://purl.org/dc/elements/1.1/"
   xmlns:cc="http://creativecommons.org/ns#"
   xmlns:rdf="http://www.w3.org/1999/02/22-rdf-syntax-ns#"
   xmlns:svg="http://www.w3.org/2000/svg"
   xmlns="http://www.w3.org/2000/svg"
   xmlns:sodipodi="http://sodipodi.sourceforge.net/DTD/sodipodi-0.dtd"
   xmlns:inkscape="http://www.inkscape.org/namespaces/inkscape"
   inkscape:version="1.0 (4035a4fb49, 2020-05-01)"
   sodipodi:docname="demcon-logo.svg"
   xml:space="preserve"
   viewBox="0 0 734.79999 848.40002"
   y="0px"
   x="0px"
   id="Layer_1"
   version="1.1"
   width="734.79999"
   height="848.40002"
   inkscape:export-filename="C:\Users\jbrin\Documents\dante\demcon\demcon-logo.png"
   inkscape:export-xdpi="249.95757"
   inkscape:export-ydpi="249.95757"><metadata
   id="metadata152"><rdf:RDF><cc:Work
       rdf:about=""><dc:format>image/svg+xml</dc:format><dc:type
         rdf:resource="http://purl.org/dc/dcmitype/StillImage" /><dc:title>googledrive</dc:title></cc:Work></rdf:RDF></metadata><defs
   id="defs150"><marker
     inkscape:isstock="true"
     style="overflow:visible"
     id="TriangleOutL-6"
     refX="0"
     refY="0"
     orient="auto"
     inkscape:stockid="TriangleOutL"><path
       inkscape:connector-curvature="0"
       transform="scale(0.8)"
       style="fill:#379683;fill-opacity:1;fill-rule:evenodd;stroke:#379683;stroke-width:1pt;stroke-opacity:1"
       d="M 5.77,0 -2.88,5 V -5 Z"
       id="path4309-5" /></marker><marker
     inkscape:isstock="true"
     style="overflow:visible"
     id="marker4513-5"
     refX="0"
     refY="0"
     orient="auto"
     inkscape:stockid="TriangleOutL"><path
       inkscape:connector-curvature="0"
       transform="scale(0.8)"
       style="fill:#379683;fill-opacity:1;fill-rule:evenodd;stroke:#379683;stroke-width:1pt;stroke-opacity:1"
       d="M 5.77,0 -2.88,5 V -5 Z"
       id="path4515-9" /></marker><clipPath
     id="clipPath1733"
     clipPathUnits="userSpaceOnUse"><path
       sodipodi:nodetypes="ccccccccccccccc"
       style="fill:#004064"
       id="path1735"
       d="M 748.84643,637.4 V 213.1 l -29.3,-16.9 -277.8,-160.4 -60.3,-34.8 -60.3,34.8 -277.800002,160.4 -29.3,16.9 v 424.2 l 29.3,16.9 281.300002,162.4 56.9,32.8 56.9,-32.8 281.3,-162.4 z"
       class="st1" /></clipPath><clipPath
     id="clipPath1737"
     clipPathUnits="userSpaceOnUse"><path
       sodipodi:nodetypes="ccccccccccccccc"
       style="fill:#004064"
       id="path1739"
       d="M 748.84643,637.4 V 213.1 l -29.3,-16.9 -277.8,-160.4 -60.3,-34.8 -60.3,34.8 -277.800002,160.4 -29.3,16.9 v 424.2 l 29.3,16.9 281.300002,162.4 56.9,32.8 56.9,-32.8 281.3,-162.4 z"
       class="st1" /></clipPath><clipPath
     id="clipPath1741"
     clipPathUnits="userSpaceOnUse"><path
       sodipodi:nodetypes="ccccccccccccccc"
       style="fill:#004064"
       id="path1743"
       d="M 748.84643,637.4 V 213.1 l -29.3,-16.9 -277.8,-160.4 -60.3,-34.8 -60.3,34.8 -277.800002,160.4 -29.3,16.9 v 424.2 l 29.3,16.9 281.300002,162.4 56.9,32.8 56.9,-32.8 281.3,-162.4 z"
       class="st1" /></clipPath><clipPath
     id="clipPath1745"
     clipPathUnits="userSpaceOnUse"><path
       sodipodi:nodetypes="ccccccccccccccc"
       style="fill:#004064"
       id="path1747"
       d="M 748.84643,637.4 V 213.1 l -29.3,-16.9 -277.8,-160.4 -60.3,-34.8 -60.3,34.8 -277.800002,160.4 -29.3,16.9 v 424.2 l 29.3,16.9 281.300002,162.4 56.9,32.8 56.9,-32.8 281.3,-162.4 z"
       class="st1" /></clipPath><clipPath
     id="clipPath1749"
     clipPathUnits="userSpaceOnUse"><path
       sodipodi:nodetypes="ccccccccccccccc"
       style="fill:#004064"
       id="path1751"
       d="M 748.84643,637.4 V 213.1 l -29.3,-16.9 -277.8,-160.4 -60.3,-34.8 -60.3,34.8 -277.800002,160.4 -29.3,16.9 v 424.2 l 29.3,16.9 281.300002,162.4 56.9,32.8 56.9,-32.8 281.3,-162.4 z"
       class="st1" /></clipPath><clipPath
     id="clipPath1753"
     clipPathUnits="userSpaceOnUse"><path
       sodipodi:nodetypes="ccccccccccccccc"
       style="fill:#004064"
       id="path1755"
       d="M 748.84643,637.4 V 213.1 l -29.3,-16.9 -277.8,-160.4 -60.3,-34.8 -60.3,34.8 -277.800002,160.4 -29.3,16.9 v 424.2 l 29.3,16.9 281.300002,162.4 56.9,32.8 56.9,-32.8 281.3,-162.4 z"
       class="st1" /></clipPath><clipPath
     id="clipPath1757"
     clipPathUnits="userSpaceOnUse"><path
       sodipodi:nodetypes="ccccccccccccccc"
       style="fill:#004064"
       id="path1759"
       d="M 748.84643,637.4 V 213.1 l -29.3,-16.9 -277.8,-160.4 -60.3,-34.8 -60.3,34.8 -277.800002,160.4 -29.3,16.9 v 424.2 l 29.3,16.9 281.300002,162.4 56.9,32.8 56.9,-32.8 281.3,-162.4 z"
       class="st1" /></clipPath><clipPath
     id="clipPath1761"
     clipPathUnits="userSpaceOnUse"><path
       sodipodi:nodetypes="ccccccccccccccc"
       style="fill:#004064"
       id="path1763"
       d="M 748.84643,637.4 V 213.1 l -29.3,-16.9 -277.8,-160.4 -60.3,-34.8 -60.3,34.8 -277.800002,160.4 -29.3,16.9 v 424.2 l 29.3,16.9 281.300002,162.4 56.9,32.8 56.9,-32.8 281.3,-162.4 z"
       class="st1" /></clipPath><clipPath
     id="clipPath1765"
     clipPathUnits="userSpaceOnUse"><path
       sodipodi:nodetypes="ccccccccccccccc"
       style="fill:#004064"
       id="path1767"
       d="M 748.84643,637.4 V 213.1 l -29.3,-16.9 -277.8,-160.4 -60.3,-34.8 -60.3,34.8 -277.800002,160.4 -29.3,16.9 v 424.2 l 29.3,16.9 281.300002,162.4 56.9,32.8 56.9,-32.8 281.3,-162.4 z"
       class="st1" /></clipPath><clipPath
     id="clipPath1769"
     clipPathUnits="userSpaceOnUse"><path
       sodipodi:nodetypes="ccccccccccccccc"
       style="fill:#004064"
       id="path1771"
       d="M 748.84643,637.4 V 213.1 l -29.3,-16.9 -277.8,-160.4 -60.3,-34.8 -60.3,34.8 -277.800002,160.4 -29.3,16.9 v 424.2 l 29.3,16.9 281.300002,162.4 56.9,32.8 56.9,-32.8 281.3,-162.4 z"
       class="st1" /></clipPath><clipPath
     id="clipPath1773"
     clipPathUnits="userSpaceOnUse"><path
       sodipodi:nodetypes="ccccccccccccccc"
       style="fill:#004064"
       id="path1775"
       d="M 748.84643,637.4 V 213.1 l -29.3,-16.9 -277.8,-160.4 -60.3,-34.8 -60.3,34.8 -277.800002,160.4 -29.3,16.9 v 424.2 l 29.3,16.9 281.300002,162.4 56.9,32.8 56.9,-32.8 281.3,-162.4 z"
       class="st1" /></clipPath><clipPath
     id="clipPath1777"
     clipPathUnits="userSpaceOnUse"><path
       sodipodi:nodetypes="ccccccccccccccc"
       style="fill:#004064"
       id="path1779"
       d="M 748.84643,637.4 V 213.1 l -29.3,-16.9 -277.8,-160.4 -60.3,-34.8 -60.3,34.8 -277.800002,160.4 -29.3,16.9 v 424.2 l 29.3,16.9 281.300002,162.4 56.9,32.8 56.9,-32.8 281.3,-162.4 z"
       class="st1" /></clipPath><clipPath
     id="clipPath1781"
     clipPathUnits="userSpaceOnUse"><path
       sodipodi:nodetypes="ccccccccccccccc"
       style="fill:#004064"
       id="path1783"
       d="M 748.84643,637.4 V 213.1 l -29.3,-16.9 -277.8,-160.4 -60.3,-34.8 -60.3,34.8 -277.800002,160.4 -29.3,16.9 v 424.2 l 29.3,16.9 281.300002,162.4 56.9,32.8 56.9,-32.8 281.3,-162.4 z"
       class="st1" /></clipPath><clipPath
     id="clipPath1785"
     clipPathUnits="userSpaceOnUse"><path
       sodipodi:nodetypes="ccccccccccccccc"
       style="fill:#004064"
       id="path1787"
       d="M 748.84643,637.4 V 213.1 l -29.3,-16.9 -277.8,-160.4 -60.3,-34.8 -60.3,34.8 -277.800002,160.4 -29.3,16.9 v 424.2 l 29.3,16.9 281.300002,162.4 56.9,32.8 56.9,-32.8 281.3,-162.4 z"
       class="st1" /></clipPath><clipPath
     id="clipPath1789"
     clipPathUnits="userSpaceOnUse"><path
       sodipodi:nodetypes="ccccccccccccccc"
       style="fill:#004064"
       id="path1791"
       d="M 748.84643,637.4 V 213.1 l -29.3,-16.9 -277.8,-160.4 -60.3,-34.8 -60.3,34.8 -277.800002,160.4 -29.3,16.9 v 424.2 l 29.3,16.9 281.300002,162.4 56.9,32.8 56.9,-32.8 281.3,-162.4 z"
       class="st1" /></clipPath><clipPath
     id="clipPath1793"
     clipPathUnits="userSpaceOnUse"><path
       sodipodi:nodetypes="ccccccccccccccc"
       style="fill:#004064"
       id="path1795"
       d="M 748.84643,637.4 V 213.1 l -29.3,-16.9 -277.8,-160.4 -60.3,-34.8 -60.3,34.8 -277.800002,160.4 -29.3,16.9 v 424.2 l 29.3,16.9 281.300002,162.4 56.9,32.8 56.9,-32.8 281.3,-162.4 z"
       class="st1" /></clipPath><clipPath
     id="clipPath1797"
     clipPathUnits="userSpaceOnUse"><path
       sodipodi:nodetypes="ccccccccccccccc"
       style="fill:#004064"
       id="path1799"
       d="M 748.84643,637.4 V 213.1 l -29.3,-16.9 -277.8,-160.4 -60.3,-34.8 -60.3,34.8 -277.800002,160.4 -29.3,16.9 v 424.2 l 29.3,16.9 281.300002,162.4 56.9,32.8 56.9,-32.8 281.3,-162.4 z"
       class="st1" /></clipPath><clipPath
     id="clipPath1801"
     clipPathUnits="userSpaceOnUse"><path
       sodipodi:nodetypes="ccccccccccccccc"
       style="fill:#004064"
       id="path1803"
       d="M 748.84643,637.4 V 213.1 l -29.3,-16.9 -277.8,-160.4 -60.3,-34.8 -60.3,34.8 -277.800002,160.4 -29.3,16.9 v 424.2 l 29.3,16.9 281.300002,162.4 56.9,32.8 56.9,-32.8 281.3,-162.4 z"
       class="st1" /></clipPath><clipPath
     id="clipPath1805"
     clipPathUnits="userSpaceOnUse"><path
       sodipodi:nodetypes="ccccccccccccccc"
       style="fill:#004064"
       id="path1807"
       d="M 748.84643,637.4 V 213.1 l -29.3,-16.9 -277.8,-160.4 -60.3,-34.8 -60.3,34.8 -277.800002,160.4 -29.3,16.9 v 424.2 l 29.3,16.9 281.300002,162.4 56.9,32.8 56.9,-32.8 281.3,-162.4 z"
       class="st1" /></clipPath><clipPath
     id="clipPath1809"
     clipPathUnits="userSpaceOnUse"><path
       sodipodi:nodetypes="ccccccccccccccc"
       style="fill:#004064"
       id="path1811"
       d="M 748.84643,637.4 V 213.1 l -29.3,-16.9 -277.8,-160.4 -60.3,-34.8 -60.3,34.8 -277.800002,160.4 -29.3,16.9 v 424.2 l 29.3,16.9 281.300002,162.4 56.9,32.8 56.9,-32.8 281.3,-162.4 z"
       class="st1" /></clipPath><clipPath
     id="clipPath1813"
     clipPathUnits="userSpaceOnUse"><path
       sodipodi:nodetypes="ccccccccccccccc"
       style="fill:#004064"
       id="path1815"
       d="M 748.84643,637.4 V 213.1 l -29.3,-16.9 -277.8,-160.4 -60.3,-34.8 -60.3,34.8 -277.800002,160.4 -29.3,16.9 v 424.2 l 29.3,16.9 281.300002,162.4 56.9,32.8 56.9,-32.8 281.3,-162.4 z"
       class="st1" /></clipPath><clipPath
     id="clipPath1817"
     clipPathUnits="userSpaceOnUse"><path
       sodipodi:nodetypes="ccccccccccccccc"
       style="fill:#004064"
       id="path1819"
       d="M 748.84643,637.4 V 213.1 l -29.3,-16.9 -277.8,-160.4 -60.3,-34.8 -60.3,34.8 -277.800002,160.4 -29.3,16.9 v 424.2 l 29.3,16.9 281.300002,162.4 56.9,32.8 56.9,-32.8 281.3,-162.4 z"
       class="st1" /></clipPath><clipPath
     id="clipPath1821"
     clipPathUnits="userSpaceOnUse"><path
       sodipodi:nodetypes="ccccccccccccccc"
       style="fill:#004064"
       id="path1823"
       d="M 748.84643,637.4 V 213.1 l -29.3,-16.9 -277.8,-160.4 -60.3,-34.8 -60.3,34.8 -277.800002,160.4 -29.3,16.9 v 424.2 l 29.3,16.9 281.300002,162.4 56.9,32.8 56.9,-32.8 281.3,-162.4 z"
       class="st1" /></clipPath><clipPath
     id="clipPath1825"
     clipPathUnits="userSpaceOnUse"><path
       sodipodi:nodetypes="ccccccccccccccc"
       style="fill:#004064"
       id="path1827"
       d="M 748.84643,637.4 V 213.1 l -29.3,-16.9 -277.8,-160.4 -60.3,-34.8 -60.3,34.8 -277.800002,160.4 -29.3,16.9 v 424.2 l 29.3,16.9 281.300002,162.4 56.9,32.8 56.9,-32.8 281.3,-162.4 z"
       class="st1" /></clipPath><clipPath
     id="clipPath1829"
     clipPathUnits="userSpaceOnUse"><path
       sodipodi:nodetypes="ccccccccccccccc"
       style="fill:#004064"
       id="path1831"
       d="M 748.84643,637.4 V 213.1 l -29.3,-16.9 -277.8,-160.4 -60.3,-34.8 -60.3,34.8 -277.800002,160.4 -29.3,16.9 v 424.2 l 29.3,16.9 281.300002,162.4 56.9,32.8 56.9,-32.8 281.3,-162.4 z"
       class="st1" /></clipPath><clipPath
     id="clipPath1833"
     clipPathUnits="userSpaceOnUse"><path
       sodipodi:nodetypes="ccccccccccccccc"
       style="fill:#004064"
       id="path1835"
       d="M 748.84643,637.4 V 213.1 l -29.3,-16.9 -277.8,-160.4 -60.3,-34.8 -60.3,34.8 -277.800002,160.4 -29.3,16.9 v 424.2 l 29.3,16.9 281.300002,162.4 56.9,32.8 56.9,-32.8 281.3,-162.4 z"
       class="st1" /></clipPath><clipPath
     id="clipPath1837"
     clipPathUnits="userSpaceOnUse"><path
       sodipodi:nodetypes="ccccccccccccccc"
       style="fill:#004064"
       id="path1839"
       d="M 748.84643,637.4 V 213.1 l -29.3,-16.9 -277.8,-160.4 -60.3,-34.8 -60.3,34.8 -277.800002,160.4 -29.3,16.9 v 424.2 l 29.3,16.9 281.300002,162.4 56.9,32.8 56.9,-32.8 281.3,-162.4 z"
       class="st1" /></clipPath><clipPath
     id="clipPath1841"
     clipPathUnits="userSpaceOnUse"><path
       sodipodi:nodetypes="ccccccccccccccc"
       style="fill:#004064"
       id="path1843"
       d="M 748.84643,637.4 V 213.1 l -29.3,-16.9 -277.8,-160.4 -60.3,-34.8 -60.3,34.8 -277.800002,160.4 -29.3,16.9 v 424.2 l 29.3,16.9 281.300002,162.4 56.9,32.8 56.9,-32.8 281.3,-162.4 z"
       class="st1" /></clipPath><clipPath
     id="clipPath1845"
     clipPathUnits="userSpaceOnUse"><path
       sodipodi:nodetypes="ccccccccccccccc"
       style="fill:#004064;stroke-width:0.424887"
       id="path1847"
       d="M 628.91883,586.36731 V 396.64272 l -11.82943,-7.55679 -112.15754,-71.72242 -24.34522,-15.56073 -24.34521,15.56073 -112.15754,71.72242 -11.82943,7.55679 V 586.3226 l 11.82943,7.55679 113.57061,72.61671 22.97252,14.66643 22.97251,-14.66643 113.57061,-72.61671 z"
       class="st1" /></clipPath><clipPath
     id="clipPath1849"
     clipPathUnits="userSpaceOnUse"><path
       sodipodi:nodetypes="ccccccccccccccc"
       style="fill:#004064"
       id="path1851"
       d="M 748.84643,637.4 V 213.1 l -29.3,-16.9 -277.8,-160.4 -60.3,-34.8 -60.3,34.8 -277.800002,160.4 -29.3,16.9 v 424.2 l 29.3,16.9 281.300002,162.4 56.9,32.8 56.9,-32.8 281.3,-162.4 z"
       class="st1" /></clipPath></defs><sodipodi:namedview
   inkscape:current-layer="Layer_1"
   inkscape:window-maximized="0"
   inkscape:window-y="109"
   inkscape:window-x="1038"
   inkscape:cy="435.06427"
   inkscape:cx="395.92182"
   inkscape:zoom="0.5915493"
   showgrid="false"
   id="namedview148"
   inkscape:window-height="1320"
   inkscape:window-width="1355"
   inkscape:pageshadow="2"
   inkscape:pageopacity="0"
   guidetolerance="10"
   gridtolerance="10"
   objecttolerance="10"
   borderopacity="1"
   bordercolor="#666666"
   pagecolor="#ffffff"
   inkscape:document-rotation="0"
   showguides="false" />
<style
   id="style2"
   type="text/css">
	.st0{fill:#005590;}
	.st1{fill:#004064;}
	.st2{fill:#E6B35A;}
	.st3{fill:#FFFFFF;}
	.st4{fill:url(#SVGID_1_);}
	.st5{fill:url(#SVGID_2_);}
	.st6{fill:url(#SVGID_3_);}
	.st7{fill:url(#SVGID_4_);}
	.st8{fill:url(#SVGID_5_);}
</style>

<title
   id="title6">googledrive</title>





























<g
   id="g850"
   transform="translate(111.4,108.2)"
   style="fill:#1f50f1;fill-opacity:1;stroke:#112c61;stroke-opacity:1;stroke-width:0;stroke-miterlimit:4;stroke-dasharray:none" /><g
   id="g996"><path
     transform="translate(-14.046432,-1)"
     class="st2"
     d="m 367,633.9 c 0.3,-0.3 0.6,-0.6 0.9,-0.9 h -0.3 c -0.1,0.3 -0.3,0.6 -0.6,0.9 z"
     id="path10"
     clip-path="url(#clipPath1849)" /><ellipse
     transform="translate(-14.046432,-1)"
     style="opacity:0;fill:#ff0000;stroke-width:1.34829"
     id="path5057"
     cx="340.98471"
     cy="340.9964"
     rx="69.398544"
     ry="42.474396"
     clip-path="url(#clipPath1841)" /><ellipse
     transform="translate(-14.046432,-1)"
     style="opacity:0;fill:#ff0000;stroke-width:1.34829"
     id="path5059"
     cx="424.3371"
     cy="431.90646"
     rx="15.801823"
     ry="46.945385"
     clip-path="url(#clipPath1837)" /><ellipse
     transform="translate(-14.046432,-1)"
     style="opacity:0;fill:#ff0000;stroke:#ff0000;stroke-width:1.34829"
     id="path5061"
     cx="337.80341"
     cy="435.63235"
     rx="150.49356"
     ry="149.03297"
     clip-path="url(#clipPath1833)" /><ellipse
     transform="translate(-14.046432,-1)"
     style="opacity:0;fill:#ff0000;stroke:#ff0000;stroke-width:1.34829"
     id="path5063"
     cx="326.51654"
     cy="240.39911"
     rx="125.66211"
     ry="102.83275"
     clip-path="url(#clipPath1829)" /><ellipse
     transform="translate(-14.046432,-1)"
     style="opacity:0;fill:#ff0000;stroke:#ff0000;stroke-width:1.34829"
     id="path5065"
     cx="355.86261"
     cy="347.70285"
     rx="57.187553"
     ry="87.929443"
     clip-path="url(#clipPath1825)" /><ellipse
     transform="translate(-14.046432,-1)"
     style="opacity:0;fill:#ff0000;stroke:#ff0000;stroke-width:1.34829"
     id="path5067"
     cx="190.31984"
     cy="300.75751"
     rx="97.820808"
     ry="97.616577"
     clip-path="url(#clipPath1821)" /><ellipse
     transform="translate(-14.046432,-1)"
     style="opacity:0;fill:#ff0000;stroke:#ff0000;stroke-width:1.34829"
     id="path5071"
     cx="449.92108"
     cy="348.44803"
     rx="85.028854"
     ry="118.48121"
     clip-path="url(#clipPath1817)" /><ellipse
     transform="translate(-14.046432,-1)"
     style="opacity:0;stroke-width:1.34829"
     id="path5045-5"
     cx="168.31656"
     cy="230.58913"
     rx="29.346245"
     ry="20.864614"
     clip-path="url(#clipPath1809)" /><path
     transform="translate(-14.046432,-1)"
     d="m 184.11834,259.6506 a 6.7722096,5.2161536 0 0 1 -5.42764,5.11232 6.7722096,5.2161536 0 0 1 -7.58287,-3.08229 6.7722096,5.2161536 0 0 1 2.4166,-6.33625 6.7722096,5.2161536 0 0 1 8.54246,0.56627 l -4.72076,3.73995 z"
     style="opacity:0;stroke-width:1.34829"
     id="path5047-2"
     sodipodi:type="arc"
     sodipodi:cx="177.34613"
     sodipodi:cy="259.6506"
     sodipodi:rx="6.7722096"
     sodipodi:ry="5.2161536"
     sodipodi:start="0"
     sodipodi:end="5.4837036"
     sodipodi:arc-type="slice"
     clip-path="url(#clipPath1805)" /><ellipse
     transform="translate(-14.046432,-1)"
     ry="29.663572"
     rx="33.108585"
     style="opacity:0;fill:#ff0000;stroke-width:1.34829"
     id="path5049-3"
     cx="191.64307"
     cy="233.56975"
     clip-path="url(#clipPath1801)" /><ellipse
     transform="translate(-14.046432,-1)"
     style="opacity:0;fill:#ff0000;stroke-width:1.34829"
     id="path5051-9"
     cx="294.7312"
     cy="191.0954"
     rx="24.831436"
     ry="27.571102"
     clip-path="url(#clipPath1797)" /><ellipse
     transform="translate(-14.046432,-1)"
     style="opacity:0;fill:#ff0000;stroke-width:1.34829"
     id="path5053-3"
     cx="265.38495"
     cy="193.33093"
     rx="13.544419"
     ry="2.9806592"
     clip-path="url(#clipPath1793)" /><ellipse
     transform="translate(-14.046432,-1)"
     style="opacity:0;fill:#ff0000;stroke-width:1.34829"
     id="path5055-3"
     cx="214.96971"
     cy="196.31157"
     rx="50.415337"
     ry="28.316267"
     clip-path="url(#clipPath1789)" /><path
     transform="translate(-14.046432,-1)"
     style="opacity:0.5;fill:#ff00ff;fill-opacity:1;stroke:#ff0000;stroke-width:0.802053"
     d="m 80.397895,423.02175 c 0.578983,-0.23168 1.270756,-0.20319 1.537278,0.0633 0.266507,0.26652 -0.20721,0.45608 -1.052701,0.42126 -0.934345,-0.0385 -1.124391,-0.22853 -0.484577,-0.48458 z"
     id="path6146"
     inkscape:connector-curvature="0"
     clip-path="url(#clipPath1769)" /><g
     transform="translate(-14.046432,-1)"
     id="g1506"><path
       id="path8"
       d="M 748.84643,637.4 V 213.1 l -29.3,-16.9 -277.8,-160.4 -60.3,-34.8 -60.3,34.8 -277.799998,160.4 -29.3,16.9 v 424.2 l 29.3,16.9 281.299998,162.4 56.9,32.8 56.9,-32.8 281.3,-162.4 z M 43.346432,621.5 V 231 L 381.44643,35.8 v 0 l 338.1,195.2 v 390.5 l -338.1,195.2 z"
       class="st1"
       clip-path="url(#clipPath1733)"
       style="fill:#112c61;fill-opacity:1" /></g><path
     style="fill:#e00000;fill-opacity:0.63999999;stroke:#112c61;stroke-opacity:1;stroke-width:0;stroke-miterlimit:4;stroke-dasharray:none"
     id="path833"
     d="M 448,448 V 416 H 416 V 224 h 32 V 192 H 64 v 32 H 96 V 416 H 64 v 32 C 28.656,448 0,476.656 0,512 h 512 c 0,-35.344 -28.656,-64 -64,-64 z M 384,224 V 416 H 352 V 224 Z m -96,0 V 416 H 224 V 224 Z m -160,0 h 32 V 416 H 128 Z M 448,160 H 64 C 81,67.313 161.766,0 256,0 350.219,0 431,67.313 448,160 Z"
     transform="translate(111.4,108.2)" /><text
     inkscape:transform-center-y="-54.095238"
     inkscape:transform-center-x="8.4523809"
     xml:space="preserve"
     style="font-style:normal;font-weight:normal;font-size:106.667px;line-height:1.25;font-family:sans-serif;letter-spacing:0px;word-spacing:0px;fill:#2f46a7;fill-opacity:0.9;stroke:#002395;stroke-width:1.90423;stroke-miterlimit:4;stroke-dasharray:none;stroke-opacity:1"
     x="47.45747"
     y="615.8446"
     id="text979"
     clip-path="url(#clipPath1737)"
     transform="matrix(1.5754394,0,0,1.5754394,-22.53729,-484.85431)"><tspan
       sodipodi:role="line"
       id="tspan977"
       x="47.45747"
       y="615.8446"
       style="font-style:normal;font-variant:normal;font-weight:bold;font-stretch:normal;font-size:106.667px;font-family:'Myanmar Text';-inkscape-font-specification:'Myanmar Text Bold';fill:#2674d9;fill-opacity:1;stroke:#112c61;stroke-width:1.90423;stroke-miterlimit:4;stroke-dasharray:none;stroke-opacity:0.8"><tspan
   id="tspan972"
   style="fill:#1f52b3;fill-opacity:1;stroke:#112c61;stroke-width:1.90423;stroke-miterlimit:4;stroke-dasharray:none;stroke-opacity:0.8">dem</tspan>con</tspan></text></g></svg>
